<svg id="Layer_1" data-name="Layer 1" xmlns="http://www.w3.org/2000/svg" viewBox="0 0 492.68 470.22"><path d="M455.39,378.64c31.72-57.8,37.9-129,15.59-191.19C450.8,131.25,408.9,83.05,355.73,55.74c-58.61-30.1-130.06-34.27-191.46-10-56,22.08-103,66.16-128.16,120.86-28,61-27.56,133.1-2,194.83a135.16,135.16,0,0,0,11.69,23.16" transform="translate(-3.3 -18.3)" fill="none" stroke="#08938a" stroke-linecap="round" stroke-miterlimit="10" stroke-width="23.41"/><circle cx="246.15" cy="247.04" r="27.65" fill="none" stroke="#08938a" stroke-linecap="round" stroke-miterlimit="10" stroke-width="19.51"/><line x1="246.15" y1="21.53" x2="246.15" y2="80.05" fill="none" stroke="#08938a" stroke-linecap="round" stroke-miterlimit="10" stroke-width="23.41"/><line x1="70.59" y1="247.04" x2="12.06" y2="247.04" fill="none" stroke="#08938a" stroke-linecap="round" stroke-miterlimit="10" stroke-width="23.41"/><line x1="92.47" y1="162.1" x2="41.24" y2="133.78" fill="none" stroke="#08938a" stroke-linecap="round" stroke-miterlimit="10" stroke-width="23.41"/><line x1="246.15" y1="71.47" x2="246.15" y2="12.94" fill="none" stroke="#08938a" stroke-linecap="round" stroke-miterlimit="10" stroke-width="23.41"/><line x1="157.37" y1="95.55" x2="127.77" y2="45.06" fill="none" stroke="#08938a" stroke-linecap="round" stroke-miterlimit="10" stroke-width="23.41"/><line x1="331.21" y1="93.42" x2="359.56" y2="42.21" fill="none" stroke="#08938a" stroke-linecap="round" stroke-miterlimit="10" stroke-width="23.41"/><line x1="397.24" y1="157.57" x2="447.6" y2="127.75" fill="none" stroke="#08938a" stroke-linecap="round" stroke-miterlimit="10" stroke-width="23.41"/><line x1="421.72" y1="247.04" x2="480.25" y2="247.04" fill="none" stroke="#08938a" stroke-linecap="round" stroke-miterlimit="10" stroke-width="23.41"/><line x1="94.77" y1="335.98" x2="44.3" y2="365.63" fill="none" stroke="#08938a" stroke-linecap="round" stroke-miterlimit="10" stroke-width="23.41"/><line x1="400.13" y1="331.45" x2="451.46" y2="359.58" fill="none" stroke="#08938a" stroke-linecap="round" stroke-miterlimit="10" stroke-width="23.41"/><path d="M242.17,273,139.51,159.28a4.88,4.88,0,0,1,7-6.78L256.73,259a10.13,10.13,0,1,1-14.08,14.58Z" transform="translate(-3.3 -18.3)" fill="#08938a"/><text transform="translate(105.24 440.48)" font-size="119" fill="#08938a" font-family="ErasITC-Bold, Eras Bold ITC" font-weight="700" letter-spacing="0.01em">AVG</text></svg>