<svg id="Layer_1" data-name="Layer 1" xmlns="http://www.w3.org/2000/svg" viewBox="0 0 96.31 90.93"><path d="M90.33,74.51a46.18,46.18,0,0,0,3-37.37A47.1,47.1,0,0,0,70.85,11.39a46,46,0,0,0-37.43-2A46.71,46.71,0,0,0,8.37,33.06,48.13,48.13,0,0,0,8,71.14a26.73,26.73,0,0,0,2.29,4.53" transform="translate(-1.95 -4.07)" fill="none" stroke="#08938a" stroke-linecap="round" stroke-miterlimit="10" stroke-width="4.58"/><circle cx="48.12" cy="48.29" r="5.4" fill="none" stroke="#08938a" stroke-linecap="round" stroke-miterlimit="10" stroke-width="3.81"/><line x1="48.12" y1="4.21" x2="48.12" y2="15.65" fill="none" stroke="#08938a" stroke-linecap="round" stroke-miterlimit="10" stroke-width="4.58"/><line x1="13.8" y1="48.29" x2="2.36" y2="48.29" fill="none" stroke="#08938a" stroke-linecap="round" stroke-miterlimit="10" stroke-width="4.58"/><line x1="18.08" y1="31.69" x2="8.06" y2="26.15" fill="none" stroke="#08938a" stroke-linecap="round" stroke-miterlimit="10" stroke-width="4.58"/><line x1="48.12" y1="13.97" x2="48.12" y2="2.53" fill="none" stroke="#08938a" stroke-linecap="round" stroke-miterlimit="10" stroke-width="4.58"/><line x1="30.76" y1="18.68" x2="24.98" y2="8.81" fill="none" stroke="#08938a" stroke-linecap="round" stroke-miterlimit="10" stroke-width="4.58"/><line x1="64.74" y1="18.26" x2="70.28" y2="8.25" fill="none" stroke="#08938a" stroke-linecap="round" stroke-miterlimit="10" stroke-width="4.58"/><line x1="77.65" y1="30.8" x2="87.49" y2="24.97" fill="none" stroke="#08938a" stroke-linecap="round" stroke-miterlimit="10" stroke-width="4.58"/><line x1="82.44" y1="48.29" x2="93.88" y2="48.29" fill="none" stroke="#08938a" stroke-linecap="round" stroke-miterlimit="10" stroke-width="4.58"/><line x1="18.52" y1="65.68" x2="8.66" y2="71.47" fill="none" stroke="#08938a" stroke-linecap="round" stroke-miterlimit="10" stroke-width="4.58"/><line x1="78.22" y1="64.79" x2="88.25" y2="70.29" fill="none" stroke="#08938a" stroke-linecap="round" stroke-miterlimit="10" stroke-width="4.58"/><path d="M48.65,53.87,28.58,31.63A1,1,0,0,1,30,30.31L51.49,51.12A2,2,0,1,1,48.74,54Z" transform="translate(-1.95 -4.07)" fill="#08938a" stroke="#08938a" stroke-miterlimit="10" stroke-width="0.38"/><text transform="translate(23.68 86.1)" font-size="22.88" fill="#08938a" font-family="ArialRoundedMTBold, Arial Rounded MT Bold"><tspan letter-spacing="-0.05em">A</tspan><tspan x="15.29" y="0" letter-spacing="-0.01em">V</tspan><tspan x="30.73" y="0">G</tspan></text></svg>