<svg id="Layer_1" data-name="Layer 1" xmlns="http://www.w3.org/2000/svg" viewBox="0 0 93.22 86.3"><path d="M4.44,82.71" transform="translate(-3.71 -6.39)" fill="none" stroke="#08938a" stroke-miterlimit="10" stroke-width="4.44"/><path d="M3.71,61.16v.3a18.19,18.19,0,0,0,.22,2.78C3.81,63.22,3.74,62.2,3.71,61.16Zm35.51,0a36.43,36.43,0,0,1-.76,5.46,17.53,17.53,0,0,0,.76-5.15Z" transform="translate(-3.71 -6.39)" fill="#08938a"/><path d="M33.45,71.23" transform="translate(-3.71 -6.39)" fill="none" stroke="#08938a" stroke-miterlimit="10" stroke-width="4.44"/><path d="M3.91,58.8a18.32,18.32,0,0,0-.2,2.36Z" transform="translate(-3.71 -6.39)" fill="#08938a"/><path d="M39,58.8a17.75,17.75,0,0,0-35.11,0,18.32,18.32,0,0,0-.2,2.36c0,1,.1,2.06.22,3.08a29.87,29.87,0,0,0,2.17,8.3c1.58,3.72,3.57,6.22,6.08,9.39a71.82,71.82,0,0,0,7.56,8.14l1.43,1.32,1.5-1.25a57.54,57.54,0,0,0,7.62-7.75A39.65,39.65,0,0,0,36.37,73a34.81,34.81,0,0,0,2.09-6.41,36.43,36.43,0,0,0,.76-5.46v0A17.86,17.86,0,0,0,39,58.8Zm-4.87,6.71a29.28,29.28,0,0,1-1.84,5.71,31,31,0,0,1-4.09,6.66c-.46.59-.92,1.15-1.38,1.71a52.77,52.77,0,0,1-5.53,5.85,67,67,0,0,1-5.65-6.27L14.6,77.84a29.55,29.55,0,0,1-4.41-7,25.19,25.19,0,0,1-1.86-7.2,12.61,12.61,0,0,1-.18-2.14,13,13,0,0,1,.27-2.66,13.32,13.32,0,0,1,26.1,0,13.71,13.71,0,0,1,.26,2.66A13.2,13.2,0,0,1,34.15,65.51Z" transform="translate(-3.71 -6.39)" fill="#08938a"/><path d="M39.66,82.77" transform="translate(-3.71 -6.39)" fill="none" stroke="#08938a" stroke-miterlimit="10" stroke-width="4.44"/><path d="M29.33,58.8a8.43,8.43,0,0,0-16,0,8.28,8.28,0,0,0-.41,2.6,8,8,0,0,0,.21,1.84,8.43,8.43,0,0,0,16.46,0,8.57,8.57,0,0,0,.2-1.84A8.28,8.28,0,0,0,29.33,58.8Zm-4.48,4.44a4,4,0,0,1-7.09,0,4,4,0,1,1,7.09,0Z" transform="translate(-3.71 -6.39)" fill="#08938a"/><path d="M68.48,45.17" transform="translate(-3.71 -6.39)" fill="none"/><path d="M68,20.64v.23a14.52,14.52,0,0,0,.15,2.1C68.05,22.21,68,21.43,68,20.64Zm28.94,0a27.78,27.78,0,0,1-.63,4.48,14.23,14.23,0,0,0,.64-4.24A1.93,1.93,0,0,0,96.92,20.63Z" transform="translate(-3.71 -6.39)" fill="#08938a"/><path d="M96.73,18.51a14.47,14.47,0,0,0-28.56,0A13.71,13.71,0,0,0,68,20.64c0,.79.07,1.57.15,2.33l0,.1a24.29,24.29,0,0,0,1.77,6.78,31.32,31.32,0,0,0,4.91,7.59A56.34,56.34,0,0,0,80.92,44l1.29,1.19,1.35-1.13a45.42,45.42,0,0,0,6.15-6.25,32.16,32.16,0,0,0,4.91-7.58,27.37,27.37,0,0,0,1.67-5.12,27.78,27.78,0,0,0,.63-4.48v0A12.15,12.15,0,0,0,96.73,18.51Zm-4.3,5.55A22.48,22.48,0,0,1,91,28.62a25.57,25.57,0,0,1-3.74,5.91l-.62.77a42.53,42.53,0,0,1-4.27,4.53A55.86,55.86,0,0,1,78,35l-.36-.46h0a25.83,25.83,0,0,1-4-6.21,20.84,20.84,0,0,1-1.49-5.78A11,11,0,0,1,72,20.87a10.81,10.81,0,0,1,.27-2.36,10.48,10.48,0,0,1,20.42,0,10.44,10.44,0,0,1-.23,5.55Z" transform="translate(-3.71 -6.39)" fill="#08938a"/><path d="M94.05,30.52" transform="translate(-3.71 -6.39)" fill="none"/><path d="M96.92,20.61a12.15,12.15,0,0,0-.19-2.1Z" transform="translate(-3.71 -6.39)" fill="#08938a"/><path d="M103.71,45.23" transform="translate(-3.71 -6.39)" fill="none"/><path d="M88.49,21a5.79,5.79,0,0,1-.2,1.51,6,6,0,0,1-11.59,0A5.79,5.79,0,0,1,76.5,21a6,6,0,0,1,12,0Z" transform="translate(-3.71 -6.39)" fill="#08938a"/><path d="M24.57,92.69a1.33,1.33,0,0,1-1.33-1.23A1.35,1.35,0,0,1,24.47,90c3-.22,6-.37,8.94-.44,3.39-.09,5.46,0,7.47,0,1.86,0,3.62.07,6.29,0,7.29-.21,10.65-.35,13.72-1.67,5.09-2.2,8-4.78,8.07-7.27.13-3-3.76-5.72-7.87-8.62a37.76,37.76,0,0,0-5.06-3,49.13,49.13,0,0,1-6.93-4.13c-5.73-4.06-6.64-6.07-6.77-7.64-.34-4.15,3.85-7.24,5.86-8.73,5.17-3.81,10.78-4.32,14.88-4.69a50.6,50.6,0,0,1,16.87,1.37,1.33,1.33,0,0,1-.65,2.58,47.91,47.91,0,0,0-16-1.3c-4,.36-9,.81-13.54,4.19-1.49,1.1-5,3.69-4.79,6.36.12,1.47,3.15,3.9,5.66,5.68a45.68,45.68,0,0,0,6.6,3.94,38.84,38.84,0,0,1,5.38,3.16c4.73,3.34,9.19,6.49,9,10.92-.11,2.52-1.88,6.23-9.68,9.6-3.67,1.57-7.58,1.68-14.7,1.88-2.73.07-4.52,0-6.42,0s-4-.08-7.34,0c-2.94.07-5.91.22-8.81.44Z" transform="translate(-3.71 -6.39)" fill="#08938a"/></svg>