<svg id="Layer_1" data-name="Layer 1" xmlns="http://www.w3.org/2000/svg" viewBox="0 0 84.61 95.28"><path d="M65.56,16.38a43.06,43.06,0,0,0-5.84-1.84,42.28,42.28,0,0,0-9.81-1.15,41.11,41.11,0,0,0-6.6.52,42.1,42.1,0,0,0-18.18,7.51A42.67,42.67,0,0,0,11.87,37.19,41.89,41.89,0,0,0,7.61,55.31c0,.13,0,.25,0,.38a42.31,42.31,0,1,0,58-39.31ZM49.91,90.58a34.89,34.89,0,1,1,9.81-68.36,34,34,0,0,1,5.84,2.31A34.88,34.88,0,0,1,49.91,90.58Z" transform="translate(-7.6 -2.72)" fill="#08938a"/><path d="M81.43,67.52A1.15,1.15,0,0,1,80,68.2L64.8,63.68,59,62l-2.15-.65-2.34-.69L52.39,60,49,59a2.28,2.28,0,1,1,1.3-4.38l.16,0,4.39,1.65,1.14.43,2.23.84.77.29,5.84,2.19,16,6A1.14,1.14,0,0,1,81.43,67.52Z" transform="translate(-7.6 -2.72)" fill="#08938a"/><path d="M64.38,40.84,59,49.62,57.2,52.45l-1.48,2.38h0l-.9,1.46-4.39-1.65-.16,0A2.28,2.28,0,1,0,49,59l3.42,1a4,4,0,0,1-6.14-4.94,4.47,4.47,0,0,1,.45-.6l3.8-4.12,1.77-1.94h0L59,41.14l2.39-2.6a1.91,1.91,0,0,1,3,2.3Z" transform="translate(-7.6 -2.72)" fill="#08938a"/><rect x="38.88" y="4" width="7.62" height="9.53" fill="#08938a"/><rect x="32.01" width="21.34" height="6.1" rx="2.29" fill="#08938a"/><rect x="19.3" y="18.3" width="7.72" height="6.38" transform="translate(-15.94 16.35) rotate(-38.46)" fill="#08938a"/><rect x="14.9" y="17.39" width="12.96" height="3.7" rx="1.39" transform="translate(-14.93 14.75) rotate(-38.46)" fill="#08938a"/><rect x="72.35" y="16.73" width="6.38" height="7.72" transform="translate(9.63 70.13) rotate(-57.12)" fill="#08938a"/><rect x="75.24" y="11.71" width="3.7" height="12.96" rx="1.39" transform="translate(12.36 70.33) rotate(-57.12)" fill="#08938a"/></svg>