<svg id="Layer_1" data-name="Layer 1" xmlns="http://www.w3.org/2000/svg" viewBox="0 0 97.83 92.37"><path d="M91.36,76.18a46.93,46.93,0,0,0,3.09-38A47.88,47.88,0,0,0,71.57,12.07a46.75,46.75,0,0,0-38-2,47.44,47.44,0,0,0-25.45,24,48.89,48.89,0,0,0-.41,38.69A27.92,27.92,0,0,0,10,77.36" transform="translate(-1.58 -4.63)" fill="none" stroke="#08938a" stroke-linecap="round" stroke-miterlimit="10" stroke-width="4.65"/><circle cx="48.88" cy="49.06" r="5.49" fill="none" stroke="#08938a" stroke-linecap="round" stroke-miterlimit="10" stroke-width="3.87"/><line x1="48.88" y1="4.27" x2="48.88" y2="15.9" fill="none" stroke="#08938a" stroke-linecap="round" stroke-miterlimit="10" stroke-width="4.65"/><line x1="14.02" y1="49.06" x2="2.4" y2="49.06" fill="none" stroke="#08938a" stroke-linecap="round" stroke-miterlimit="10" stroke-width="4.65"/><line x1="18.36" y1="32.19" x2="8.19" y2="26.57" fill="none" stroke="#08938a" stroke-linecap="round" stroke-miterlimit="10" stroke-width="4.65"/><line x1="48.88" y1="14.19" x2="48.88" y2="2.57" fill="none" stroke="#08938a" stroke-linecap="round" stroke-miterlimit="10" stroke-width="4.65"/><line x1="31.25" y1="18.98" x2="25.37" y2="8.95" fill="none" stroke="#08938a" stroke-linecap="round" stroke-miterlimit="10" stroke-width="4.65"/><line x1="65.77" y1="18.55" x2="71.4" y2="8.38" fill="none" stroke="#08938a" stroke-linecap="round" stroke-miterlimit="10" stroke-width="4.65"/><line x1="78.88" y1="31.29" x2="88.88" y2="25.37" fill="none" stroke="#08938a" stroke-linecap="round" stroke-miterlimit="10" stroke-width="4.65"/><line x1="83.74" y1="49.06" x2="95.37" y2="49.06" fill="none" stroke="#08938a" stroke-linecap="round" stroke-miterlimit="10" stroke-width="4.65"/><line x1="18.82" y1="66.72" x2="8.8" y2="72.61" fill="none" stroke="#08938a" stroke-linecap="round" stroke-miterlimit="10" stroke-width="4.65"/><line x1="79.46" y1="65.82" x2="89.65" y2="71.41" fill="none" stroke="#08938a" stroke-linecap="round" stroke-miterlimit="10" stroke-width="4.65"/><path d="M51.53,51.54l26,13.72a1.21,1.21,0,0,1-1,2.19L49.39,56.1a2.52,2.52,0,0,1,1.94-4.66Z" transform="translate(-1.58 -4.63)" fill="#08938a"/><text transform="translate(23.67 87.47)" font-size="23.24" fill="#08938a" font-family="ArialRoundedMTBold, Arial Rounded MT Bold">MAX</text></svg>