<svg id="Layer_1" data-name="Layer 1" xmlns="http://www.w3.org/2000/svg" viewBox="0 0 342.14 463.62"><path d="M86.89,408.18" transform="translate(-90.86 -18.68)" fill="none" stroke="#000" stroke-miterlimit="10" stroke-width="18.25"/><path d="M261.93,18.68c-93.27,0-168.38,73-171.07,166.55v1.33a299.19,299.19,0,0,0,2.19,30.75,297.5,297.5,0,0,0,21.49,81.91c15.56,36.69,34.45,60.51,60.55,93.5l.32.37a726.86,726.86,0,0,0,76.52,82.41l7.35,6.8,7.71-6.44a571.59,571.59,0,0,0,76.8-78.07c20-24.6,42.62-52.48,60.92-93.87a335.37,335.37,0,0,0,20.76-63.74A346.8,346.8,0,0,0,433,186.51v-1.59C430.31,91.69,355.2,18.68,261.93,18.68ZM260.29,315.6A126.58,126.58,0,0,1,133.84,189.16c0-1,0-2.1,0-3.15l0-.46a126.41,126.41,0,0,1,252.71,0l0,.51c.05,1.05.05,2.05.05,3.1A126.58,126.58,0,0,1,260.29,315.6Z" transform="translate(-90.86 -18.68)"/><path d="M104.36,216a160.24,160.24,0,0,1-2.14-26.19c0-1.19,0-2.33,0-3.47C102.49,196.78,103.22,206.68,104.36,216Z" transform="translate(-90.86 -18.68)" fill="none" stroke="#000" stroke-miterlimit="10" stroke-width="18.25"/><path d="M421.64,189.8a159.79,159.79,0,0,1-7.3,47.91,335.6,335.6,0,0,0,7.25-51.88C421.64,187.15,421.64,188.47,421.64,189.8Z" transform="translate(-90.86 -18.68)" fill="none" stroke="#000" stroke-miterlimit="10" stroke-width="18.25"/><path d="M102.26,185.23v1.1a10,10,0,0,1,0-1.1Z" transform="translate(-90.86 -18.68)" fill="none" stroke="#000" stroke-miterlimit="10" stroke-width="18.25"/><path d="M421.64,185.23a1.44,1.44,0,0,1-.05.46v-.46Z" transform="translate(-90.86 -18.68)" fill="none" stroke="#000" stroke-miterlimit="10" stroke-width="18.25"/><path d="M260.29,338.42C178,338.42,111,271.46,111,189.16c0-1.51,0-3,.1-4.46C113.49,103.48,179,39.9,260.29,39.9s146.79,63.58,149.16,144.79c.09,1.5.1,3,.1,4.47C409.55,271.46,342.59,338.42,260.29,338.42Zm0-275.71A125.71,125.71,0,0,0,133.93,185.55l0,.47c-.08,1.06-.07,2.08-.07,3.14a126.45,126.45,0,0,0,252.89,0c0-1,0-2.07-.06-3.12l0-.49A125.71,125.71,0,0,0,260.29,62.71Z" transform="translate(-90.86 -18.68)"/><path d="M337.69,185a30.68,30.68,0,0,0-12.89,2.82c-.32-.54-.63-1.08-.94-1.64a34.76,34.76,0,0,1,17.36-2.93A39.08,39.08,0,0,1,355,186.16c3.22,1.39,5.69,3.05,6.36,2.33s-1.09-3.72-2.64-5.58c-1.16-1.4-4.54-5-12.73-7.14-.81-.21-13.74-3.39-26.66,2-.38-.72-.75-1.45-1.14-2.2-2.46-4.77-5.1-10.93-9-20.38,4.89-2.62,8.46-1.39,10.28-4.29.61-1,1.36-2.93-2.48-13.87-2.26-6.42-3.22-9.69-4.35-11-3.73-4.25-10.62-5.81-16.43-5.34,0,0,0-.06,0-.09-.85-3.91-1.73-7.94-6-10.08-5.48-2.72-10.61.35-17.73,4.58a91.67,91.67,0,0,0-11.11,7.77,6.21,6.21,0,0,0,7.87,9.62,79.51,79.51,0,0,1,9.59-6.71c1.63-1,3.65-2.17,5.19-3l.09.43c.35,1.63.79,3.65,1.51,6.15.48,1.68,1.5,4.28,4.24,11-1.71,2.19-5.61.17-16.07.52-14,.46-20.14,4.64-21.93,5.79a16.33,16.33,0,0,0-4.1,3.58c-5.74,7.09-5.05,10.93-9.36,14-1.48,1.06-5.54,1.26-13.65,1.65-9.12.45-11.32-.31-13-1.44a18.67,18.67,0,0,1-5.17-5.8c-2.36-3.66-1.67-4.6-3.11-6.41-2.37-3-7.68-3.19-18.21-3.52a104.18,104.18,0,0,0-11.8.21c-7.94.62-11.48,1.91-13.66,2.89-3,1.36-6.06,2.74-6.34,5.18-.37,3.11,4.06,5.82,5.1,6.41,4.44,2.54,9.11,2,11.17,1.86,0,0,6.66-.58,23.6,1.24,4.58.5,15.53,1.65,25.66,9.32a53.17,53.17,0,0,1,7.52,6.8q-5.44,2.35-10.18,4.48a35.72,35.72,0,1,0,7.95,30.66h0l8.06-.13,8.44-.16c3.94,3.31,9.11,4.8,12.36,5.74,8.71,2.51,16.22.5,31.25-3.52a7.27,7.27,0,0,0,4.14-2.48c2.25-3,.69-7.65.2-9.31-4.06-14,6.55-33.23,11.39-42l.11-.21c2.75,6.61,4.89,11.43,7,15.49.58,1.11,1.14,2.21,1.7,3.28a31,31,0,0,0-4.28,5.27,34.2,34.2,0,0,0-3.43,7.22c-1.38,3.63-1.75,6.2-2.49,11.33-.2,1.37-.41,3.12.62,4.5a3,3,0,0,0,2.64,1.4c1.09-.23,1.74-1.74,2.64-3.88a17.07,17.07,0,0,0,.93-2.64,38.54,38.54,0,0,1,8.3-14.1l.92,1.57A30.87,30.87,0,1,0,337.69,185Zm-126.8,20.65-4.54,0c1.21-.61,2.54-1.27,4-2Q210.67,204.63,210.89,205.62Zm-21.61,27.1a22.17,22.17,0,1,1,13.95-39.39q-4.57,2.26-7.93,4.14c-5.62,3.15-14.13,7.91-12,14.92,1.65,5.31,7.25,5.47,12.66,5.62,1.87.05,4.19.07,7.19.07l6.95,0A22.2,22.2,0,0,1,189.28,232.72Zm42.82-27.41-7.46.13a36.06,36.06,0,0,0-1.93-7.5c3.19-1.42,6.75-3,10.71-4.68a28.58,28.58,0,0,1,2.1,7.7,28.89,28.89,0,0,1,.17,4.28Zm105.59,29.56a19,19,0,0,1-16-29.29c.81,1.06,1.66,2.14,2.56,3.24a122.18,122.18,0,0,0,8.94,9.81,6.21,6.21,0,0,0,8.78-.06,6.21,6.21,0,0,0-.07-8.79,113.79,113.79,0,0,1-8-8.82c-.85-1-1.65-2.07-2.42-3.08a19,19,0,1,1,6.24,37Z" transform="translate(-90.86 -18.68)" stroke="#000" stroke-miterlimit="10" stroke-width="0"/></svg>